<svg width="174" height="174" viewBox="0 0 174 174" fill="none" xmlns="http://www.w3.org/2000/svg">
<path d="M157.687 64.0837C157.687 62.7433 156.624 61.4492 154.667 60.2285V22.5983C156.624 21.3775 157.687 20.0834 157.687 18.7458C157.687 11.3916 126.044 5.4375 87 5.4375C47.9615 5.4375 16.3125 11.3916 16.3125 18.7458C16.3125 20.0861 17.3755 21.3775 19.333 22.5983V60.2312C17.3755 61.4519 16.3125 62.7433 16.3125 64.0837C16.3125 65.424 17.3755 66.7181 19.333 67.9361V106.061C17.3755 107.282 16.3125 108.576 16.3125 109.916C16.3125 111.257 17.3755 112.551 19.333 113.769V151.402C17.3755 152.622 16.3125 153.914 16.3125 155.254C16.3125 162.603 47.9615 168.562 87 168.562C126.044 168.562 157.687 162.603 157.687 155.254C157.687 153.914 156.624 152.62 154.667 151.399V113.772C156.624 112.548 157.687 111.257 157.687 109.916C157.687 108.576 156.624 107.282 154.667 106.061V67.9388C156.624 66.7181 157.687 65.424 157.687 64.0837ZM87 10.875C121.911 10.875 143.588 15.4751 150.502 18.7431C143.585 22.011 121.914 26.6138 87 26.6138C52.0912 26.6138 30.4147 22.011 23.4954 18.7431C30.4147 15.4751 52.0885 10.875 87 10.875ZM87 162.644C56.0198 162.644 29.7023 156.431 20.1514 151.209C37.081 153.705 60.7695 157.717 87 157.717C113.23 157.717 136.919 153.705 153.846 151.209C144.3 156.431 117.98 162.644 87 162.644ZM87 118.296C56.0198 118.296 29.7023 112.078 20.1514 106.858C37.081 109.354 60.7695 113.369 87 113.369C113.23 113.369 136.919 109.354 153.846 106.858C144.3 112.078 117.98 118.296 87 118.296ZM87 72.4601C56.0198 72.4601 29.7023 66.2451 20.1514 61.0251C37.081 63.5154 60.7695 67.5337 87 67.5337C113.23 67.5337 136.919 63.5154 153.846 61.0251C144.3 66.2451 117.98 72.4601 87 72.4601Z" fill="url(#paint0_linear_2065_449)"/>
<path d="M48.0404 21.4047C53.8769 21.4047 58.6082 20.2131 58.6082 18.7431C58.6082 17.2731 53.8769 16.0814 48.0404 16.0814C42.204 16.0814 37.4727 17.2731 37.4727 18.7431C37.4727 20.2131 42.204 21.4047 48.0404 21.4047Z" fill="black"/>
<defs>
<linearGradient id="paint0_linear_2065_449" x1="87" y1="5.4375" x2="87" y2="168.562" gradientUnits="userSpaceOnUse">
<stop stop-color="#177200"/>
<stop offset="1" stop-color="#388E3C"/>
</linearGradient>
</defs>
</svg>
