<svg width="389" height="91" viewBox="0 0 389 91" fill="none" xmlns="http://www.w3.org/2000/svg">
<path d="M0 2.53471H8.75142L12.7969 46.5243H12.962L17.2552 2.53471H27.1624L31.4556 46.5243H31.6207L35.6662 2.53471H43.5094L37.6476 59.7702H26.3368L22.2088 21.1771H22.0437L17.9156 59.7702H5.8618L0 2.53471Z" fill="#388E3C"/>
<path d="M53.992 2.53471H66.2935L75.7054 59.7702H66.6238L64.9726 48.4049V48.5684H54.6525L53.0013 59.7702H44.5801L53.992 2.53471ZM63.8993 40.8007L59.8538 12.51H59.6887L55.7258 40.8007H63.8993Z" fill="#388E3C"/>
<path d="M91.6758 60.5878C87.2725 60.5878 83.9426 59.3614 81.6859 56.9084C79.4293 54.401 78.3009 50.8305 78.3009 46.1972V42.9266H86.8872V46.8513C86.8872 50.558 88.4559 52.4113 91.5932 52.4113C93.1343 52.4113 94.2902 51.9753 95.0607 51.1031C95.8863 50.1764 96.2991 48.7047 96.2991 46.6878C96.2991 44.2894 95.7487 42.1907 94.6479 40.3919C93.5471 38.5385 91.5106 36.3309 88.5384 33.7689C84.7957 30.4983 82.1813 27.5548 80.6952 24.9383C79.2091 22.2673 78.4661 19.2693 78.4661 15.9442C78.4661 11.4198 79.6219 7.9312 81.9336 5.47825C84.2453 2.97079 87.6028 1.71706 92.006 1.71706C96.3542 1.71706 99.6291 2.97079 101.831 5.47825C104.087 7.9312 105.216 11.4743 105.216 16.1077V18.4789H96.6294V15.5353C96.6294 13.573 96.2441 12.1557 95.4735 11.2836C94.703 10.3569 93.5746 9.89356 92.0886 9.89356C89.0613 9.89356 87.5477 11.7196 87.5477 15.3718C87.5477 17.4432 88.0981 19.3783 89.1989 21.1771C90.3548 22.976 92.4188 25.1564 95.391 27.7183C99.1888 30.9889 101.803 33.9597 103.234 36.6307C104.665 39.3017 105.381 42.436 105.381 46.0337C105.381 50.7215 104.197 54.3192 101.831 56.8266C99.519 59.3341 96.134 60.5878 91.6758 60.5878Z" fill="#388E3C"/>
<path d="M117.688 10.7112H108.194V2.53471H136.264V10.7112H126.77V59.7702H117.688V10.7112Z" fill="#388E3C"/>
<path d="M140.661 2.53471H165.429V10.7112H149.743V25.8377H162.21V34.0142H149.743V51.5937H165.429V59.7702H140.661V2.53471Z" fill="#388E3C"/>
<path d="M225.858 30.1304V54.0466C222.831 56.2543 219.597 57.876 216.157 58.9117C212.744 59.9201 209.084 60.4243 205.176 60.4243C200.305 60.4243 195.888 59.6748 191.925 58.1758C187.99 56.6767 184.619 54.5917 181.812 51.9207C179.032 49.2498 176.886 46.0609 175.372 42.3542C173.858 38.6476 173.102 34.6002 173.102 30.2121C173.102 25.7696 173.831 21.695 175.289 17.9883C176.748 14.2816 178.812 11.0928 181.482 8.42179C184.178 5.7508 187.44 3.67942 191.265 2.20765C195.09 0.735883 199.383 0 204.144 0C206.566 0 208.823 0.190784 210.914 0.572352C213.033 0.953924 214.987 1.4854 216.776 2.16677C218.592 2.82089 220.244 3.62491 221.73 4.57884C223.216 5.53276 224.578 6.58208 225.817 7.72679L222.638 12.7145C222.143 13.5048 221.496 13.9954 220.698 14.1862C219.9 14.3497 219.033 14.1453 218.097 13.573C217.189 13.0551 216.281 12.5373 215.373 12.0194C214.464 11.5016 213.446 11.0519 212.318 10.6703C211.217 10.2888 209.965 9.97532 208.561 9.73003C207.185 9.48473 205.589 9.36209 203.773 9.36209C200.828 9.36209 198.159 9.85268 195.764 10.8339C193.398 11.815 191.375 13.2187 189.696 15.0447C188.018 16.8708 186.724 19.0649 185.816 21.6268C184.908 24.1888 184.454 27.0506 184.454 30.2121C184.454 33.5918 184.935 36.6171 185.898 39.2881C186.889 41.9318 188.265 44.1803 190.027 46.0337C191.815 47.8598 193.962 49.2634 196.466 50.2446C198.971 51.1985 201.764 51.6755 204.846 51.6755C207.048 51.6755 209.015 51.4438 210.749 50.9805C212.483 50.5171 214.175 49.8903 215.827 49.0999V38.3886H208.314C207.598 38.3886 207.034 38.1979 206.621 37.8163C206.236 37.4075 206.043 36.9169 206.043 36.3445V30.1304H225.858Z" fill="#8BC34A"/>
<path d="M243.92 25.1018C245.241 22.5944 246.809 20.632 248.626 19.2148C250.442 17.7702 252.589 17.048 255.066 17.048C257.019 17.048 258.588 17.4704 259.771 18.3153L259.111 25.8786C258.973 26.3692 258.767 26.7235 258.492 26.9416C258.244 27.1323 257.9 27.2277 257.46 27.2277C257.047 27.2277 256.428 27.1596 255.602 27.0233C254.804 26.887 254.02 26.8189 253.249 26.8189C252.121 26.8189 251.116 26.9824 250.236 27.3095C249.355 27.6366 248.557 28.1135 247.841 28.7404C247.153 29.34 246.534 30.0759 245.984 30.948C245.461 31.8202 244.966 32.815 244.498 33.9325V59.7702H234.302V17.8248H240.287C241.333 17.8248 242.062 18.0155 242.475 18.3971C242.888 18.7514 243.163 19.4055 243.301 20.3595L243.92 25.1018Z" fill="#8BC34A"/>
<path d="M291.177 33.9733C291.177 32.6651 290.985 31.4386 290.599 30.2939C290.242 29.122 289.691 28.0999 288.948 27.2277C288.205 26.3556 287.256 25.6742 286.1 25.1836C284.972 24.6658 283.651 24.4068 282.137 24.4068C279.192 24.4068 276.867 25.2381 275.161 26.9007C273.482 28.5632 272.409 30.9208 271.941 33.9733H291.177ZM271.734 40.0648C271.899 42.218 272.285 44.0849 272.89 45.6657C273.496 47.2193 274.294 48.5139 275.284 49.5496C276.275 50.558 277.445 51.3211 278.793 51.839C280.169 52.3296 281.683 52.5749 283.334 52.5749C284.985 52.5749 286.403 52.3841 287.586 52.0025C288.797 51.6209 289.843 51.1985 290.723 50.7352C291.631 50.2718 292.416 49.8494 293.076 49.4678C293.764 49.0862 294.425 48.8954 295.058 48.8954C295.911 48.8954 296.544 49.2089 296.957 49.8357L299.888 53.5152C298.759 54.8234 297.493 55.9272 296.09 56.8266C294.686 57.6988 293.214 58.4074 291.673 58.9525C290.159 59.4704 288.604 59.8383 287.008 60.0564C285.439 60.2744 283.912 60.3834 282.426 60.3834C279.481 60.3834 276.743 59.9065 274.211 58.9525C271.679 57.9714 269.478 56.5405 267.606 54.6599C265.735 52.752 264.263 50.4081 263.189 47.6281C262.116 44.8208 261.579 41.5775 261.579 37.8981C261.579 35.0363 262.047 32.3517 262.983 29.8442C263.919 27.3095 265.253 25.1155 266.987 23.2621C268.748 21.3815 270.881 19.8961 273.386 18.8059C275.917 17.7157 278.766 17.1706 281.931 17.1706C284.6 17.1706 287.063 17.5931 289.32 18.438C291.576 19.2829 293.517 20.523 295.14 22.1583C296.764 23.7663 298.03 25.756 298.938 28.1271C299.874 30.4711 300.342 33.1557 300.342 36.181C300.342 37.7073 300.176 38.743 299.846 39.2881C299.516 39.8059 298.883 40.0648 297.947 40.0648H271.734Z" fill="#8BC34A"/>
<path d="M335.28 33.9733C335.28 32.6651 335.087 31.4386 334.702 30.2939C334.344 29.122 333.793 28.0999 333.05 27.2277C332.307 26.3556 331.358 25.6742 330.202 25.1836C329.074 24.6658 327.753 24.4068 326.239 24.4068C323.295 24.4068 320.969 25.2381 319.263 26.9007C317.584 28.5632 316.511 30.9208 316.043 33.9733H335.28ZM315.837 40.0648C316.002 42.218 316.387 44.0849 316.992 45.6657C317.598 47.2193 318.396 48.5139 319.387 49.5496C320.377 50.558 321.547 51.3211 322.895 51.839C324.271 52.3296 325.785 52.5749 327.436 52.5749C329.087 52.5749 330.505 52.3841 331.688 52.0025C332.899 51.6209 333.945 51.1985 334.825 50.7352C335.734 50.2718 336.518 49.8494 337.178 49.4678C337.866 49.0862 338.527 48.8954 339.16 48.8954C340.013 48.8954 340.646 49.2089 341.059 49.8357L343.99 53.5152C342.861 54.8234 341.595 55.9272 340.192 56.8266C338.788 57.6988 337.316 58.4074 335.775 58.9525C334.261 59.4704 332.706 59.8383 331.11 60.0564C329.542 60.2744 328.014 60.3834 326.528 60.3834C323.583 60.3834 320.845 59.9065 318.313 58.9525C315.781 57.9714 313.58 56.5405 311.708 54.6599C309.837 52.752 308.365 50.4081 307.292 47.6281C306.218 44.8208 305.682 41.5775 305.682 37.8981C305.682 35.0363 306.149 32.3517 307.085 29.8442C308.021 27.3095 309.356 25.1155 311.089 23.2621C312.851 21.3815 314.983 19.8961 317.488 18.8059C320.02 17.7157 322.868 17.1706 326.033 17.1706C328.702 17.1706 331.165 17.5931 333.422 18.438C335.679 19.2829 337.619 20.523 339.242 22.1583C340.866 23.7663 342.132 25.756 343.04 28.1271C343.976 30.4711 344.444 33.1557 344.444 36.181C344.444 37.7073 344.279 38.743 343.948 39.2881C343.618 39.8059 342.985 40.0648 342.05 40.0648H315.837Z" fill="#8BC34A"/>
<path d="M361.631 22.976C362.484 22.131 363.379 21.3543 364.314 20.6457C365.278 19.9098 366.282 19.2965 367.328 18.8059C368.401 18.2881 369.543 17.8929 370.754 17.6203C371.965 17.3205 373.286 17.1706 374.717 17.1706C377.029 17.1706 379.079 17.5658 380.868 18.3562C382.657 19.1194 384.143 20.2096 385.326 21.6268C386.537 23.0168 387.445 24.693 388.051 26.6554C388.684 28.5905 389 30.73 389 33.0739V59.7702H378.804V33.0739C378.804 30.512 378.212 28.536 377.029 27.146C375.845 25.7287 374.043 25.0201 371.621 25.0201C369.86 25.0201 368.209 25.4153 366.667 26.2057C365.126 26.9961 363.668 28.0726 362.292 29.4354V59.7702H352.095V17.8248H358.329C359.65 17.8248 360.517 18.438 360.929 19.6645L361.631 22.976Z" fill="#8BC34A"/>
<path d="M36.5693 75.6853C36.5693 76.4555 36.4714 77.1573 36.2754 77.7908C36.084 78.4197 35.7946 78.962 35.4072 79.4177C35.0199 79.8689 34.5345 80.2175 33.9512 80.4636C33.3678 80.7097 32.6842 80.8328 31.9004 80.8328C31.1029 80.8328 30.4102 80.7097 29.8223 80.4636C29.2389 80.2175 28.7536 79.8666 28.3662 79.4109C27.9834 78.9552 27.6963 78.4106 27.5049 77.7771C27.3135 77.1436 27.2178 76.4418 27.2178 75.6716C27.2178 74.6417 27.3864 73.7439 27.7236 72.9783C28.0654 72.2081 28.5827 71.6111 29.2754 71.1873C29.9727 70.7589 30.8522 70.5447 31.9141 70.5447C32.9531 70.5447 33.8167 70.7566 34.5049 71.1804C35.193 71.6042 35.708 72.2013 36.0498 72.9714C36.3962 73.7371 36.5693 74.6417 36.5693 75.6853ZM28.9404 75.6853C28.9404 76.4555 29.0452 77.1231 29.2549 77.6882C29.4645 78.2488 29.7858 78.6817 30.2188 78.9871C30.6562 79.2878 31.2168 79.4382 31.9004 79.4382C32.5885 79.4382 33.1491 79.2878 33.582 78.9871C34.015 78.6817 34.334 78.2488 34.5391 77.6882C34.7441 77.1231 34.8467 76.4555 34.8467 75.6853C34.8467 74.5141 34.612 73.5981 34.1426 72.9373C33.6777 72.2719 32.9349 71.9392 31.9141 71.9392C31.2305 71.9392 30.6676 72.0896 30.2256 72.3904C29.7881 72.6912 29.4645 73.1218 29.2549 73.6824C29.0452 74.2384 28.9404 74.906 28.9404 75.6853ZM50.7402 72.9851C51.5879 72.9851 52.2259 73.2039 52.6543 73.6414C53.0872 74.0789 53.3037 74.7807 53.3037 75.7468V80.696H51.6973V76.0339C51.6973 75.4597 51.5856 75.0268 51.3623 74.7351C51.139 74.4434 50.7995 74.2976 50.3438 74.2976C49.7057 74.2976 49.2454 74.5027 48.9629 74.9128C48.6849 75.3184 48.5459 75.9086 48.5459 76.6833V80.696H46.9395V76.0339C46.9395 75.6511 46.8893 75.3321 46.7891 75.0769C46.6934 74.8171 46.5452 74.6235 46.3447 74.4958C46.1442 74.3637 45.8913 74.2976 45.5859 74.2976C45.1439 74.2976 44.7907 74.3979 44.5264 74.5984C44.2666 74.7989 44.0798 75.0951 43.9658 75.4871C43.8519 75.8744 43.7949 76.3507 43.7949 76.9158V80.696H42.1885V73.1287H43.4395L43.665 74.1472H43.7539C43.9089 73.8829 44.1003 73.6664 44.3281 73.4978C44.5605 73.3246 44.818 73.197 45.1006 73.115C45.3831 73.0284 45.6771 72.9851 45.9824 72.9851C46.5475 72.9851 47.0238 73.0854 47.4111 73.2859C47.7985 73.4819 48.0879 73.7826 48.2793 74.1882H48.4023C48.6393 73.7781 48.9697 73.475 49.3936 73.2791C49.8174 73.0831 50.2663 72.9851 50.7402 72.9851ZM58.5605 72.9851C59.235 72.9851 59.8138 73.1241 60.2969 73.4021C60.7799 73.6801 61.1514 74.0743 61.4111 74.5847C61.6709 75.0951 61.8008 75.7058 61.8008 76.4167V77.2781H56.749C56.7673 78.0118 56.9632 78.5769 57.3369 78.9734C57.7152 79.3699 58.2438 79.5681 58.9229 79.5681C59.4059 79.5681 59.8389 79.5225 60.2217 79.4314C60.609 79.3357 61.0078 79.1967 61.418 79.0144V80.3201C61.0397 80.4978 60.6546 80.6277 60.2627 80.7097C59.8708 80.7917 59.4014 80.8328 58.8545 80.8328C58.1117 80.8328 57.4577 80.6892 56.8926 80.4021C56.332 80.1104 55.8923 79.6775 55.5732 79.1033C55.2588 78.5291 55.1016 77.8158 55.1016 76.9636C55.1016 76.116 55.2451 75.3959 55.5322 74.8035C55.8193 74.211 56.2227 73.7598 56.7422 73.45C57.2617 73.1401 57.8678 72.9851 58.5605 72.9851ZM58.5605 74.1951C58.0547 74.1951 57.6445 74.3591 57.3301 74.6873C57.0202 75.0154 56.8379 75.4962 56.7832 76.1296H60.2285C60.224 75.7514 60.1602 75.4164 60.0371 75.1248C59.9186 74.8331 59.7363 74.6052 59.4902 74.4412C59.2487 74.2771 58.9388 74.1951 58.5605 74.1951ZM65.2256 80.696H63.6123V70.0593H65.2256V80.696ZM69.1289 70.0593V72.7322C69.1289 73.0102 69.1198 73.2813 69.1016 73.5457C69.0879 73.81 69.0719 74.0151 69.0537 74.1609H69.1426C69.3021 73.8966 69.498 73.6801 69.7305 73.5115C69.9629 73.3383 70.2227 73.2084 70.5098 73.1218C70.8014 73.0352 71.1113 72.9919 71.4395 72.9919C72.0182 72.9919 72.5104 73.0899 72.916 73.2859C73.3216 73.4773 73.6315 73.7758 73.8457 74.1814C74.0645 74.587 74.1738 75.1134 74.1738 75.7605V80.696H72.5674V76.0613C72.5674 75.4734 72.4466 75.0336 72.2051 74.7419C71.9635 74.4457 71.5898 74.2976 71.084 74.2976C70.5964 74.2976 70.209 74.4001 69.9219 74.6052C69.6393 74.8057 69.4365 75.1042 69.3135 75.5007C69.1904 75.8927 69.1289 76.3712 69.1289 76.9363V80.696H67.5225V70.0593H69.1289ZM83.1221 76.8953C83.1221 77.5242 83.04 78.0824 82.876 78.5701C82.7119 79.0577 82.4727 79.4701 82.1582 79.8074C81.8438 80.1401 81.4655 80.3953 81.0234 80.573C80.5814 80.7462 80.0824 80.8328 79.5264 80.8328C79.0068 80.8328 78.5306 80.7462 78.0977 80.573C77.6647 80.3953 77.2887 80.1401 76.9697 79.8074C76.6553 79.4701 76.4115 79.0577 76.2383 78.5701C76.0651 78.0824 75.9785 77.5242 75.9785 76.8953C75.9785 76.0613 76.1221 75.3549 76.4092 74.7761C76.7008 74.1928 77.1156 73.7485 77.6533 73.4431C78.1911 73.1378 78.8314 72.9851 79.5742 72.9851C80.2715 72.9851 80.8867 73.1378 81.4199 73.4431C81.9531 73.7485 82.3701 74.1928 82.6709 74.7761C82.9717 75.3595 83.1221 76.0658 83.1221 76.8953ZM77.6328 76.8953C77.6328 77.4467 77.6989 77.9184 77.8311 78.3103C77.9678 78.7022 78.1774 79.003 78.46 79.2126C78.7425 79.4177 79.1071 79.5203 79.5537 79.5203C80.0003 79.5203 80.3649 79.4177 80.6475 79.2126C80.93 79.003 81.1374 78.7022 81.2695 78.3103C81.4017 77.9184 81.4678 77.4467 81.4678 76.8953C81.4678 76.3438 81.4017 75.8767 81.2695 75.4939C81.1374 75.1065 80.93 74.8126 80.6475 74.6121C80.3649 74.407 79.998 74.3044 79.5469 74.3044C78.8815 74.3044 78.3962 74.5278 78.0908 74.9744C77.7855 75.421 77.6328 76.0613 77.6328 76.8953ZM88.8027 72.9851C88.9303 72.9851 89.0693 72.9919 89.2197 73.0056C89.3701 73.0193 89.5 73.0375 89.6094 73.0603L89.459 74.5642C89.3633 74.5369 89.2448 74.5164 89.1035 74.5027C88.9668 74.489 88.8438 74.4822 88.7344 74.4822C88.4473 74.4822 88.1738 74.53 87.9141 74.6257C87.6543 74.7169 87.4242 74.8582 87.2236 75.0496C87.0231 75.2364 86.8659 75.4711 86.752 75.7537C86.638 76.0362 86.5811 76.3643 86.5811 76.738V80.696H84.9678V73.1287H86.2256L86.4443 74.4617H86.5195C86.6699 74.1928 86.8568 73.9467 87.0801 73.7234C87.3034 73.5001 87.5586 73.3223 87.8457 73.1902C88.1374 73.0535 88.4564 72.9851 88.8027 72.9851ZM97.1904 80.8328C96.2881 80.8328 95.5635 80.5046 95.0166 79.8484C94.4743 79.1876 94.2031 78.2146 94.2031 76.9294C94.2031 75.6306 94.4788 74.6485 95.0303 73.9832C95.5863 73.3178 96.3177 72.9851 97.2246 72.9851C97.6074 72.9851 97.9424 73.0375 98.2295 73.1423C98.5166 73.2426 98.7627 73.3793 98.9678 73.5525C99.1774 73.7257 99.3551 73.9194 99.501 74.1335H99.5762C99.5534 73.9923 99.526 73.7895 99.4941 73.5251C99.4668 73.2563 99.4531 73.0079 99.4531 72.78V70.0593H101.066V80.696H99.8086L99.5215 79.6638H99.4531C99.3164 79.8826 99.1432 80.0808 98.9336 80.2585C98.7285 80.4317 98.4824 80.5707 98.1953 80.6755C97.9128 80.7804 97.5778 80.8328 97.1904 80.8328ZM97.6416 79.5271C98.3298 79.5271 98.8151 79.3289 99.0977 78.9324C99.3802 78.5359 99.526 77.9412 99.5352 77.1482V76.9363C99.5352 76.0886 99.3984 75.4392 99.125 74.988C98.8516 74.5323 98.3525 74.3044 97.6279 74.3044C97.0492 74.3044 96.6071 74.5391 96.3018 75.0085C96.001 75.4734 95.8506 76.1228 95.8506 76.9568C95.8506 77.7908 96.001 78.4288 96.3018 78.8708C96.6071 79.3083 97.0537 79.5271 97.6416 79.5271ZM106.385 72.9851C107.059 72.9851 107.638 73.1241 108.121 73.4021C108.604 73.6801 108.976 74.0743 109.235 74.5847C109.495 75.0951 109.625 75.7058 109.625 76.4167V77.2781H104.573C104.591 78.0118 104.787 78.5769 105.161 78.9734C105.539 79.3699 106.068 79.5681 106.747 79.5681C107.23 79.5681 107.663 79.5225 108.046 79.4314C108.433 79.3357 108.832 79.1967 109.242 79.0144V80.3201C108.864 80.4978 108.479 80.6277 108.087 80.7097C107.695 80.7917 107.226 80.8328 106.679 80.8328C105.936 80.8328 105.282 80.6892 104.717 80.4021C104.156 80.1104 103.716 79.6775 103.397 79.1033C103.083 78.5291 102.926 77.8158 102.926 76.9636C102.926 76.116 103.069 75.3959 103.356 74.8035C103.644 74.211 104.047 73.7598 104.566 73.45C105.086 73.1401 105.692 72.9851 106.385 72.9851ZM106.385 74.1951C105.879 74.1951 105.469 74.3591 105.154 74.6873C104.844 75.0154 104.662 75.4962 104.607 76.1296H108.053C108.048 75.7514 107.984 75.4164 107.861 75.1248C107.743 74.8331 107.561 74.6052 107.314 74.4412C107.073 74.2771 106.763 74.1951 106.385 74.1951ZM116.522 78.5359C116.522 79.0326 116.402 79.4519 116.16 79.7937C115.919 80.1355 115.565 80.3953 115.101 80.573C114.64 80.7462 114.075 80.8328 113.405 80.8328C112.877 80.8328 112.421 80.794 112.038 80.7166C111.66 80.6436 111.302 80.5297 110.965 80.3748V78.9871C111.325 79.1557 111.728 79.3015 112.175 79.4246C112.626 79.5476 113.052 79.6091 113.453 79.6091C113.982 79.6091 114.362 79.5271 114.595 79.363C114.827 79.1944 114.943 78.9711 114.943 78.6931C114.943 78.5291 114.896 78.3832 114.8 78.2556C114.709 78.1235 114.535 77.989 114.28 77.8523C114.03 77.711 113.66 77.5424 113.173 77.3464C112.694 77.155 112.291 76.9636 111.963 76.7722C111.635 76.5808 111.386 76.3507 111.218 76.0818C111.049 75.8083 110.965 75.4597 110.965 75.0359C110.965 74.366 111.229 73.8578 111.758 73.5115C112.291 73.1606 112.995 72.9851 113.87 72.9851C114.335 72.9851 114.772 73.033 115.183 73.1287C115.597 73.2198 116.003 73.3542 116.399 73.532L115.894 74.7419C115.552 74.5916 115.208 74.4685 114.861 74.3728C114.52 74.2725 114.171 74.2224 113.815 74.2224C113.401 74.2224 113.084 74.2862 112.865 74.4138C112.651 74.5414 112.544 74.7237 112.544 74.9607C112.544 75.1384 112.596 75.2888 112.701 75.4119C112.806 75.5349 112.986 75.658 113.241 75.781C113.501 75.9041 113.861 76.0567 114.321 76.239C114.772 76.4122 115.162 76.5945 115.49 76.7859C115.823 76.9727 116.078 77.2029 116.256 77.4763C116.434 77.7498 116.522 78.1029 116.522 78.5359ZM121.075 79.5339C121.285 79.5339 121.492 79.5157 121.697 79.4792C121.902 79.4382 122.089 79.3904 122.258 79.3357V80.5525C122.08 80.63 121.85 80.696 121.567 80.7507C121.285 80.8054 120.991 80.8328 120.686 80.8328C120.257 80.8328 119.872 80.7621 119.53 80.6208C119.188 80.475 118.917 80.2266 118.717 79.8757C118.516 79.5248 118.416 79.0395 118.416 78.4197V74.3523H117.384V73.6345L118.491 73.0671L119.018 71.447H120.029V73.1287H122.196V74.3523H120.029V78.3992C120.029 78.782 120.125 79.0668 120.316 79.2537C120.508 79.4405 120.761 79.5339 121.075 79.5339ZM125.402 73.1287V80.696H123.796V73.1287H125.402ZM124.609 70.2302C124.855 70.2302 125.067 70.2963 125.245 70.4285C125.427 70.5606 125.519 70.7885 125.519 71.1121C125.519 71.4311 125.427 71.6589 125.245 71.7957C125.067 71.9278 124.855 71.9939 124.609 71.9939C124.354 71.9939 124.138 71.9278 123.96 71.7957C123.787 71.6589 123.7 71.4311 123.7 71.1121C123.7 70.7885 123.787 70.5606 123.96 70.4285C124.138 70.2963 124.354 70.2302 124.609 70.2302ZM131.65 72.9851C132.503 72.9851 133.166 73.2061 133.64 73.6482C134.118 74.0857 134.357 74.7898 134.357 75.7605V80.696H132.751V76.0613C132.751 75.4734 132.63 75.0336 132.389 74.7419C132.147 74.4457 131.773 74.2976 131.268 74.2976C130.534 74.2976 130.023 74.5232 129.736 74.9744C129.454 75.4255 129.312 76.0795 129.312 76.9363V80.696H127.706V73.1287H128.957L129.183 74.1541H129.271C129.436 73.8897 129.638 73.6733 129.88 73.5046C130.126 73.3315 130.399 73.2016 130.7 73.115C131.006 73.0284 131.322 72.9851 131.65 72.9851ZM143.306 76.8953C143.306 77.5242 143.224 78.0824 143.06 78.5701C142.896 79.0577 142.656 79.4701 142.342 79.8074C142.027 80.1401 141.649 80.3953 141.207 80.573C140.765 80.7462 140.266 80.8328 139.71 80.8328C139.19 80.8328 138.714 80.7462 138.281 80.573C137.848 80.3953 137.472 80.1401 137.153 79.8074C136.839 79.4701 136.595 79.0577 136.422 78.5701C136.249 78.0824 136.162 77.5242 136.162 76.8953C136.162 76.0613 136.306 75.3549 136.593 74.7761C136.884 74.1928 137.299 73.7485 137.837 73.4431C138.375 73.1378 139.015 72.9851 139.758 72.9851C140.455 72.9851 141.07 73.1378 141.604 73.4431C142.137 73.7485 142.554 74.1928 142.854 74.7761C143.155 75.3595 143.306 76.0658 143.306 76.8953ZM137.816 76.8953C137.816 77.4467 137.882 77.9184 138.015 78.3103C138.151 78.7022 138.361 79.003 138.644 79.2126C138.926 79.4177 139.291 79.5203 139.737 79.5203C140.184 79.5203 140.549 79.4177 140.831 79.2126C141.114 79.003 141.321 78.7022 141.453 78.3103C141.585 77.9184 141.651 77.4467 141.651 76.8953C141.651 76.3438 141.585 75.8767 141.453 75.4939C141.321 75.1065 141.114 74.8126 140.831 74.6121C140.549 74.407 140.182 74.3044 139.73 74.3044C139.065 74.3044 138.58 74.5278 138.274 74.9744C137.969 75.421 137.816 76.0613 137.816 76.8953ZM152.671 72.9851C153.569 72.9851 154.289 73.3132 154.831 73.9695C155.378 74.6257 155.651 75.601 155.651 76.8953C155.651 77.752 155.524 78.4744 155.269 79.0623C155.018 79.6456 154.665 80.0876 154.209 80.3884C153.758 80.6847 153.231 80.8328 152.63 80.8328C152.247 80.8328 151.914 80.7826 151.632 80.6824C151.349 80.5821 151.108 80.4522 150.907 80.2927C150.707 80.1287 150.538 79.9509 150.401 79.7595H150.306C150.328 79.9418 150.349 80.1446 150.367 80.3679C150.39 80.5867 150.401 80.7872 150.401 80.9695V84.0525H148.788V73.1287H150.101L150.326 74.1746H150.401C150.543 73.9604 150.714 73.7621 150.914 73.5798C151.119 73.3975 151.365 73.254 151.652 73.1492C151.944 73.0398 152.284 72.9851 152.671 72.9851ZM152.24 74.2976C151.798 74.2976 151.443 74.3865 151.174 74.5642C150.91 74.7374 150.716 74.9994 150.593 75.3503C150.474 75.7013 150.41 76.141 150.401 76.6697V76.8953C150.401 77.4558 150.458 77.932 150.572 78.324C150.691 78.7113 150.884 79.0076 151.153 79.2126C151.427 79.4132 151.796 79.5134 152.261 79.5134C152.653 79.5134 152.976 79.4063 153.231 79.1921C153.491 78.9779 153.685 78.6726 153.812 78.2761C153.94 77.8796 154.004 77.4125 154.004 76.8748C154.004 76.059 153.858 75.4255 153.566 74.9744C153.279 74.5232 152.837 74.2976 152.24 74.2976ZM160.478 72.9851C161.435 72.9851 162.157 73.197 162.645 73.6208C163.137 74.0447 163.383 74.7055 163.383 75.6033V80.696H162.241L161.934 79.6228H161.879C161.665 79.8962 161.444 80.1218 161.216 80.2996C160.988 80.4773 160.724 80.6095 160.423 80.696C160.127 80.7872 159.764 80.8328 159.336 80.8328C158.885 80.8328 158.481 80.7507 158.126 80.5867C157.771 80.4181 157.49 80.1628 157.285 79.821C157.08 79.4792 156.978 79.0463 156.978 78.5222C156.978 77.7429 157.267 77.1573 157.846 76.7654C158.429 76.3735 159.309 76.157 160.484 76.116L161.797 76.0681V75.6716C161.797 75.1475 161.674 74.7738 161.428 74.5505C161.186 74.3272 160.844 74.2156 160.402 74.2156C160.024 74.2156 159.657 74.2703 159.302 74.3796C158.946 74.489 158.6 74.6235 158.263 74.783L157.743 73.6482C158.112 73.4522 158.532 73.2927 159.001 73.1697C159.475 73.0466 159.967 72.9851 160.478 72.9851ZM161.79 77.0798L160.812 77.114C160.01 77.1414 159.448 77.2781 159.124 77.5242C158.8 77.7703 158.639 78.1075 158.639 78.5359C158.639 78.9096 158.75 79.183 158.974 79.3562C159.197 79.5248 159.491 79.6091 159.855 79.6091C160.411 79.6091 160.872 79.4519 161.236 79.1375C161.605 78.8184 161.79 78.3513 161.79 77.7361V77.0798ZM169.467 72.9851C169.594 72.9851 169.733 72.9919 169.884 73.0056C170.034 73.0193 170.164 73.0375 170.273 73.0603L170.123 74.5642C170.027 74.5369 169.909 74.5164 169.768 74.5027C169.631 74.489 169.508 74.4822 169.398 74.4822C169.111 74.4822 168.838 74.53 168.578 74.6257C168.318 74.7169 168.088 74.8582 167.888 75.0496C167.687 75.2364 167.53 75.4711 167.416 75.7537C167.302 76.0362 167.245 76.3643 167.245 76.738V80.696H165.632V73.1287H166.89L167.108 74.4617H167.184C167.334 74.1928 167.521 73.9467 167.744 73.7234C167.967 73.5001 168.223 73.3223 168.51 73.1902C168.801 73.0535 169.12 72.9851 169.467 72.9851ZM174.642 72.9851C175.599 72.9851 176.321 73.197 176.809 73.6208C177.301 74.0447 177.547 74.7055 177.547 75.6033V80.696H176.405L176.098 79.6228H176.043C175.829 79.8962 175.608 80.1218 175.38 80.2996C175.152 80.4773 174.888 80.6095 174.587 80.696C174.291 80.7872 173.928 80.8328 173.5 80.8328C173.049 80.8328 172.646 80.7507 172.29 80.5867C171.935 80.4181 171.654 80.1628 171.449 79.821C171.244 79.4792 171.142 79.0463 171.142 78.5222C171.142 77.7429 171.431 77.1573 172.01 76.7654C172.593 76.3735 173.473 76.157 174.648 76.116L175.961 76.0681V75.6716C175.961 75.1475 175.838 74.7738 175.592 74.5505C175.35 74.3272 175.008 74.2156 174.566 74.2156C174.188 74.2156 173.821 74.2703 173.466 74.3796C173.11 74.489 172.764 74.6235 172.427 74.783L171.907 73.6482C172.276 73.4522 172.696 73.2927 173.165 73.1697C173.639 73.0466 174.131 72.9851 174.642 72.9851ZM175.954 77.0798L174.977 77.114C174.174 77.1414 173.612 77.2781 173.288 77.5242C172.965 77.7703 172.803 78.1075 172.803 78.5359C172.803 78.9096 172.914 79.183 173.138 79.3562C173.361 79.5248 173.655 79.6091 174.02 79.6091C174.576 79.6091 175.036 79.4519 175.4 79.1375C175.77 78.8184 175.954 78.3513 175.954 77.7361V77.0798ZM190.132 76.8953C190.132 77.5242 190.05 78.0824 189.886 78.5701C189.722 79.0577 189.482 79.4701 189.168 79.8074C188.854 80.1401 188.475 80.3953 188.033 80.573C187.591 80.7462 187.092 80.8328 186.536 80.8328C186.017 80.8328 185.54 80.7462 185.107 80.573C184.674 80.3953 184.299 80.1401 183.979 79.8074C183.665 79.4701 183.421 79.0577 183.248 78.5701C183.075 78.0824 182.988 77.5242 182.988 76.8953C182.988 76.0613 183.132 75.3549 183.419 74.7761C183.711 74.1928 184.125 73.7485 184.663 73.4431C185.201 73.1378 185.841 72.9851 186.584 72.9851C187.281 72.9851 187.896 73.1378 188.43 73.4431C188.963 73.7485 189.38 74.1928 189.681 74.7761C189.981 75.3595 190.132 76.0658 190.132 76.8953ZM184.643 76.8953C184.643 77.4467 184.709 77.9184 184.841 78.3103C184.978 78.7022 185.187 79.003 185.47 79.2126C185.752 79.4177 186.117 79.5203 186.563 79.5203C187.01 79.5203 187.375 79.4177 187.657 79.2126C187.94 79.003 188.147 78.7022 188.279 78.3103C188.411 77.9184 188.478 77.4467 188.478 76.8953C188.478 76.3438 188.411 75.8767 188.279 75.4939C188.147 75.1065 187.94 74.8126 187.657 74.6121C187.375 74.407 187.008 74.3044 186.557 74.3044C185.891 74.3044 185.406 74.5278 185.101 74.9744C184.795 75.421 184.643 76.0613 184.643 76.8953ZM197.063 78.5359C197.063 79.0326 196.943 79.4519 196.701 79.7937C196.46 80.1355 196.106 80.3953 195.642 80.573C195.181 80.7462 194.616 80.8328 193.946 80.8328C193.418 80.8328 192.962 80.794 192.579 80.7166C192.201 80.6436 191.843 80.5297 191.506 80.3748V78.9871C191.866 79.1557 192.269 79.3015 192.716 79.4246C193.167 79.5476 193.593 79.6091 193.994 79.6091C194.523 79.6091 194.903 79.5271 195.136 79.363C195.368 79.1944 195.484 78.9711 195.484 78.6931C195.484 78.5291 195.437 78.3832 195.341 78.2556C195.25 78.1235 195.076 77.989 194.821 77.8523C194.571 77.711 194.201 77.5424 193.714 77.3464C193.235 77.155 192.832 76.9636 192.504 76.7722C192.176 76.5808 191.927 76.3507 191.759 76.0818C191.59 75.8083 191.506 75.4597 191.506 75.0359C191.506 74.366 191.77 73.8578 192.299 73.5115C192.832 73.1606 193.536 72.9851 194.411 72.9851C194.876 72.9851 195.313 73.033 195.724 73.1287C196.138 73.2198 196.544 73.3542 196.94 73.532L196.435 74.7419C196.093 74.5916 195.749 74.4685 195.402 74.3728C195.061 74.2725 194.712 74.2224 194.356 74.2224C193.942 74.2224 193.625 74.2862 193.406 74.4138C193.192 74.5414 193.085 74.7237 193.085 74.9607C193.085 75.1384 193.137 75.2888 193.242 75.4119C193.347 75.5349 193.527 75.658 193.782 75.781C194.042 75.9041 194.402 76.0567 194.862 76.239C195.313 76.4122 195.703 76.5945 196.031 76.7859C196.364 76.9727 196.619 77.2029 196.797 77.4763C196.975 77.7498 197.063 78.1029 197.063 78.5359ZM207.522 78.5359C207.522 79.0326 207.402 79.4519 207.16 79.7937C206.919 80.1355 206.565 80.3953 206.101 80.573C205.64 80.7462 205.075 80.8328 204.405 80.8328C203.877 80.8328 203.421 80.794 203.038 80.7166C202.66 80.6436 202.302 80.5297 201.965 80.3748V78.9871C202.325 79.1557 202.728 79.3015 203.175 79.4246C203.626 79.5476 204.052 79.6091 204.453 79.6091C204.982 79.6091 205.362 79.5271 205.595 79.363C205.827 79.1944 205.943 78.9711 205.943 78.6931C205.943 78.5291 205.896 78.3832 205.8 78.2556C205.709 78.1235 205.535 77.989 205.28 77.8523C205.03 77.711 204.66 77.5424 204.173 77.3464C203.694 77.155 203.291 76.9636 202.963 76.7722C202.635 76.5808 202.386 76.3507 202.218 76.0818C202.049 75.8083 201.965 75.4597 201.965 75.0359C201.965 74.366 202.229 73.8578 202.758 73.5115C203.291 73.1606 203.995 72.9851 204.87 72.9851C205.335 72.9851 205.772 73.033 206.183 73.1287C206.597 73.2198 207.003 73.3542 207.399 73.532L206.894 74.7419C206.552 74.5916 206.208 74.4685 205.861 74.3728C205.52 74.2725 205.171 74.2224 204.815 74.2224C204.401 74.2224 204.084 74.2862 203.865 74.4138C203.651 74.5414 203.544 74.7237 203.544 74.9607C203.544 75.1384 203.596 75.2888 203.701 75.4119C203.806 75.5349 203.986 75.658 204.241 75.781C204.501 75.9041 204.861 76.0567 205.321 76.239C205.772 76.4122 206.162 76.5945 206.49 76.7859C206.823 76.9727 207.078 77.2029 207.256 77.4763C207.434 77.7498 207.522 78.1029 207.522 78.5359ZM212.273 72.9851C212.948 72.9851 213.527 73.1241 214.01 73.4021C214.493 73.6801 214.864 74.0743 215.124 74.5847C215.384 75.0951 215.514 75.7058 215.514 76.4167V77.2781H210.462C210.48 78.0118 210.676 78.5769 211.05 78.9734C211.428 79.3699 211.957 79.5681 212.636 79.5681C213.119 79.5681 213.552 79.5225 213.935 79.4314C214.322 79.3357 214.721 79.1967 215.131 79.0144V80.3201C214.753 80.4978 214.368 80.6277 213.976 80.7097C213.584 80.7917 213.114 80.8328 212.567 80.8328C211.825 80.8328 211.171 80.6892 210.605 80.4021C210.045 80.1104 209.605 79.6775 209.286 79.1033C208.972 78.5291 208.814 77.8158 208.814 76.9636C208.814 76.116 208.958 75.3959 209.245 74.8035C209.532 74.211 209.936 73.7598 210.455 73.45C210.975 73.1401 211.581 72.9851 212.273 72.9851ZM212.273 74.1951C211.768 74.1951 211.357 74.3591 211.043 74.6873C210.733 75.0154 210.551 75.4962 210.496 76.1296H213.941C213.937 75.7514 213.873 75.4164 213.75 75.1248C213.632 74.8331 213.449 74.6052 213.203 74.4412C212.962 74.2771 212.652 74.1951 212.273 74.1951ZM223.922 73.1287V80.696H222.657L222.438 79.6775H222.35C222.19 79.9373 221.987 80.1537 221.741 80.3269C221.495 80.4955 221.222 80.6208 220.921 80.7029C220.62 80.7895 220.303 80.8328 219.971 80.8328C219.401 80.8328 218.913 80.7371 218.508 80.5457C218.107 80.3497 217.799 80.0489 217.585 79.6433C217.371 79.2377 217.264 78.7136 217.264 78.071V73.1287H218.877V77.7703C218.877 78.3582 218.995 78.7979 219.232 79.0896C219.474 79.3813 219.848 79.5271 220.354 79.5271C220.841 79.5271 221.229 79.4268 221.516 79.2263C221.803 79.0258 222.006 78.7296 222.124 78.3376C222.247 77.9457 222.309 77.4649 222.309 76.8953V73.1287H223.922ZM231.312 78.5359C231.312 79.0326 231.191 79.4519 230.949 79.7937C230.708 80.1355 230.354 80.3953 229.89 80.573C229.429 80.7462 228.864 80.8328 228.194 80.8328C227.666 80.8328 227.21 80.794 226.827 80.7166C226.449 80.6436 226.091 80.5297 225.754 80.3748V78.9871C226.114 79.1557 226.517 79.3015 226.964 79.4246C227.415 79.5476 227.841 79.6091 228.242 79.6091C228.771 79.6091 229.151 79.5271 229.384 79.363C229.616 79.1944 229.732 78.9711 229.732 78.6931C229.732 78.5291 229.685 78.3832 229.589 78.2556C229.498 78.1235 229.325 77.989 229.069 77.8523C228.819 77.711 228.45 77.5424 227.962 77.3464C227.483 77.155 227.08 76.9636 226.752 76.7722C226.424 76.5808 226.175 76.3507 226.007 76.0818C225.838 75.8083 225.754 75.4597 225.754 75.0359C225.754 74.366 226.018 73.8578 226.547 73.5115C227.08 73.1606 227.784 72.9851 228.659 72.9851C229.124 72.9851 229.562 73.033 229.972 73.1287C230.386 73.2198 230.792 73.3542 231.188 73.532L230.683 74.7419C230.341 74.5916 229.997 74.4685 229.65 74.3728C229.309 74.2725 228.96 74.2224 228.604 74.2224C228.19 74.2224 227.873 74.2862 227.654 74.4138C227.44 74.5414 227.333 74.7237 227.333 74.9607C227.333 75.1384 227.385 75.2888 227.49 75.4119C227.595 75.5349 227.775 75.658 228.03 75.781C228.29 75.9041 228.65 76.0567 229.11 76.239C229.562 76.4122 229.951 76.5945 230.279 76.7859C230.612 76.9727 230.867 77.2029 231.045 77.4763C231.223 77.7498 231.312 78.1029 231.312 78.5359ZM240.52 72.9851C240.647 72.9851 240.786 72.9919 240.937 73.0056C241.087 73.0193 241.217 73.0375 241.326 73.0603L241.176 74.5642C241.08 74.5369 240.962 74.5164 240.82 74.5027C240.684 74.489 240.561 74.4822 240.451 74.4822C240.164 74.4822 239.891 74.53 239.631 74.6257C239.371 74.7169 239.141 74.8582 238.94 75.0496C238.74 75.2364 238.583 75.4711 238.469 75.7537C238.355 76.0362 238.298 76.3643 238.298 76.738V80.696H236.685V73.1287H237.942L238.161 74.4617H238.236C238.387 74.1928 238.574 73.9467 238.797 73.7234C239.02 73.5001 239.275 73.3223 239.562 73.1902C239.854 73.0535 240.173 72.9851 240.52 72.9851ZM245.742 72.9851C246.417 72.9851 246.995 73.1241 247.479 73.4021C247.962 73.6801 248.333 74.0743 248.593 74.5847C248.853 75.0951 248.982 75.7058 248.982 76.4167V77.2781H243.931C243.949 78.0118 244.145 78.5769 244.519 78.9734C244.897 79.3699 245.425 79.5681 246.104 79.5681C246.588 79.5681 247.021 79.5225 247.403 79.4314C247.791 79.3357 248.189 79.1967 248.6 79.0144V80.3201C248.221 80.4978 247.836 80.6277 247.444 80.7097C247.052 80.7917 246.583 80.8328 246.036 80.8328C245.293 80.8328 244.639 80.6892 244.074 80.4021C243.514 80.1104 243.074 79.6775 242.755 79.1033C242.44 78.5291 242.283 77.8158 242.283 76.9636C242.283 76.116 242.427 75.3959 242.714 74.8035C243.001 74.211 243.404 73.7598 243.924 73.45C244.443 73.1401 245.049 72.9851 245.742 72.9851ZM245.742 74.1951C245.236 74.1951 244.826 74.3591 244.512 74.6873C244.202 75.0154 244.02 75.4962 243.965 76.1296H247.41C247.406 75.7514 247.342 75.4164 247.219 75.1248C247.1 74.8331 246.918 74.6052 246.672 74.4412C246.43 74.2771 246.12 74.1951 245.742 74.1951ZM255.88 78.5359C255.88 79.0326 255.759 79.4519 255.518 79.7937C255.276 80.1355 254.923 80.3953 254.458 80.573C253.998 80.7462 253.433 80.8328 252.763 80.8328C252.234 80.8328 251.778 80.794 251.396 80.7166C251.017 80.6436 250.66 80.5297 250.322 80.3748V78.9871C250.682 79.1557 251.086 79.3015 251.532 79.4246C251.983 79.5476 252.41 79.6091 252.811 79.6091C253.339 79.6091 253.72 79.5271 253.952 79.363C254.185 79.1944 254.301 78.9711 254.301 78.6931C254.301 78.5291 254.253 78.3832 254.157 78.2556C254.066 78.1235 253.893 77.989 253.638 77.8523C253.387 77.711 253.018 77.5424 252.53 77.3464C252.052 77.155 251.648 76.9636 251.32 76.7722C250.992 76.5808 250.744 76.3507 250.575 76.0818C250.407 75.8083 250.322 75.4597 250.322 75.0359C250.322 74.366 250.587 73.8578 251.115 73.5115C251.648 73.1606 252.353 72.9851 253.228 72.9851C253.692 72.9851 254.13 73.033 254.54 73.1287C254.955 73.2198 255.36 73.3542 255.757 73.532L255.251 74.7419C254.909 74.5916 254.565 74.4685 254.219 74.3728C253.877 74.2725 253.528 74.2224 253.173 74.2224C252.758 74.2224 252.441 74.2862 252.223 74.4138C252.008 74.5414 251.901 74.7237 251.901 74.9607C251.901 75.1384 251.954 75.2888 252.059 75.4119C252.163 75.5349 252.343 75.658 252.599 75.781C252.858 75.9041 253.218 76.0567 253.679 76.239C254.13 76.4122 254.52 76.5945 254.848 76.7859C255.18 76.9727 255.436 77.2029 255.613 77.4763C255.791 77.7498 255.88 78.1029 255.88 78.5359ZM259.223 80.696H257.616V73.1287H259.223V80.696ZM260.754 69.9705V70.1072C260.645 70.2393 260.496 70.3988 260.31 70.5857C260.123 70.768 259.92 70.9617 259.701 71.1667C259.482 71.3673 259.266 71.561 259.052 71.7478C258.838 71.9301 258.644 72.085 258.471 72.2126H257.397V72.0349C257.548 71.8617 257.714 71.6544 257.896 71.4128C258.083 71.1713 258.266 70.9229 258.443 70.6677C258.626 70.4125 258.778 70.1801 258.901 69.9705H260.754ZM264.069 80.8328C263.167 80.8328 262.442 80.5046 261.896 79.8484C261.353 79.1876 261.082 78.2146 261.082 76.9294C261.082 75.6306 261.358 74.6485 261.909 73.9832C262.465 73.3178 263.197 72.9851 264.104 72.9851C264.486 72.9851 264.821 73.0375 265.108 73.1423C265.396 73.2426 265.642 73.3793 265.847 73.5525C266.056 73.7257 266.234 73.9194 266.38 74.1335H266.455C266.432 73.9923 266.405 73.7895 266.373 73.5251C266.346 73.2563 266.332 73.0079 266.332 72.78V70.0593H267.945V80.696H266.688L266.4 79.6638H266.332C266.195 79.8826 266.022 80.0808 265.812 80.2585C265.607 80.4317 265.361 80.5707 265.074 80.6755C264.792 80.7804 264.457 80.8328 264.069 80.8328ZM264.521 79.5271C265.209 79.5271 265.694 79.3289 265.977 78.9324C266.259 78.5359 266.405 77.9412 266.414 77.1482V76.9363C266.414 76.0886 266.277 75.4392 266.004 74.988C265.73 74.5323 265.231 74.3044 264.507 74.3044C263.928 74.3044 263.486 74.5391 263.181 75.0085C262.88 75.4734 262.729 76.1228 262.729 76.9568C262.729 77.7908 262.88 78.4288 263.181 78.8708C263.486 79.3083 263.933 79.5271 264.521 79.5271ZM276.846 73.1287V80.696H275.581L275.362 79.6775H275.273C275.114 79.9373 274.911 80.1537 274.665 80.3269C274.419 80.4955 274.146 80.6208 273.845 80.7029C273.544 80.7895 273.227 80.8328 272.895 80.8328C272.325 80.8328 271.837 80.7371 271.432 80.5457C271.031 80.3497 270.723 80.0489 270.509 79.6433C270.295 79.2377 270.188 78.7136 270.188 78.071V73.1287H271.801V77.7703C271.801 78.3582 271.919 78.7979 272.156 79.0896C272.398 79.3813 272.771 79.5271 273.277 79.5271C273.765 79.5271 274.152 79.4268 274.439 79.2263C274.727 79.0258 274.929 78.7296 275.048 78.3376C275.171 77.9457 275.232 77.4649 275.232 76.8953V73.1287H276.846ZM285.849 76.8953C285.849 77.5242 285.767 78.0824 285.603 78.5701C285.438 79.0577 285.199 79.4701 284.885 79.8074C284.57 80.1401 284.192 80.3953 283.75 80.573C283.308 80.7462 282.809 80.8328 282.253 80.8328C281.733 80.8328 281.257 80.7462 280.824 80.573C280.391 80.3953 280.015 80.1401 279.696 79.8074C279.382 79.4701 279.138 79.0577 278.965 78.5701C278.792 78.0824 278.705 77.5242 278.705 76.8953C278.705 76.0613 278.849 75.3549 279.136 74.7761C279.427 74.1928 279.842 73.7485 280.38 73.4431C280.918 73.1378 281.558 72.9851 282.301 72.9851C282.998 72.9851 283.613 73.1378 284.146 73.4431C284.68 73.7485 285.097 74.1928 285.397 74.7761C285.698 75.3595 285.849 76.0658 285.849 76.8953ZM280.359 76.8953C280.359 77.4467 280.425 77.9184 280.558 78.3103C280.694 78.7022 280.904 79.003 281.187 79.2126C281.469 79.4177 281.834 79.5203 282.28 79.5203C282.727 79.5203 283.091 79.4177 283.374 79.2126C283.657 79.003 283.864 78.7022 283.996 78.3103C284.128 77.9184 284.194 77.4467 284.194 76.8953C284.194 76.3438 284.128 75.8767 283.996 75.4939C283.864 75.1065 283.657 74.8126 283.374 74.6121C283.091 74.407 282.725 74.3044 282.273 74.3044C281.608 74.3044 281.123 74.5278 280.817 74.9744C280.512 75.421 280.359 76.0613 280.359 76.8953ZM292.78 78.5359C292.78 79.0326 292.66 79.4519 292.418 79.7937C292.176 80.1355 291.823 80.3953 291.358 80.573C290.898 80.7462 290.333 80.8328 289.663 80.8328C289.134 80.8328 288.679 80.794 288.296 80.7166C287.918 80.6436 287.56 80.5297 287.223 80.3748V78.9871C287.583 79.1557 287.986 79.3015 288.433 79.4246C288.884 79.5476 289.31 79.6091 289.711 79.6091C290.24 79.6091 290.62 79.5271 290.853 79.363C291.085 79.1944 291.201 78.9711 291.201 78.6931C291.201 78.5291 291.153 78.3832 291.058 78.2556C290.966 78.1235 290.793 77.989 290.538 77.8523C290.287 77.711 289.918 77.5424 289.431 77.3464C288.952 77.155 288.549 76.9636 288.221 76.7722C287.893 76.5808 287.644 76.3507 287.476 76.0818C287.307 75.8083 287.223 75.4597 287.223 75.0359C287.223 74.366 287.487 73.8578 288.016 73.5115C288.549 73.1606 289.253 72.9851 290.128 72.9851C290.593 72.9851 291.03 73.033 291.44 73.1287C291.855 73.2198 292.261 73.3542 292.657 73.532L292.151 74.7419C291.81 74.5916 291.465 74.4685 291.119 74.3728C290.777 74.2725 290.429 74.2224 290.073 74.2224C289.659 74.2224 289.342 74.2862 289.123 74.4138C288.909 74.5414 288.802 74.7237 288.802 74.9607C288.802 75.1384 288.854 75.2888 288.959 75.4119C289.064 75.5349 289.244 75.658 289.499 75.781C289.759 75.9041 290.119 76.0567 290.579 76.239C291.03 76.4122 291.42 76.5945 291.748 76.7859C292.081 76.9727 292.336 77.2029 292.514 77.4763C292.691 77.7498 292.78 78.1029 292.78 78.5359ZM304.853 76.8953C304.853 77.5242 304.771 78.0824 304.606 78.5701C304.442 79.0577 304.203 79.4701 303.889 79.8074C303.574 80.1401 303.196 80.3953 302.754 80.573C302.312 80.7462 301.813 80.8328 301.257 80.8328C300.737 80.8328 300.261 80.7462 299.828 80.573C299.395 80.3953 299.019 80.1401 298.7 79.8074C298.386 79.4701 298.142 79.0577 297.969 78.5701C297.796 78.0824 297.709 77.5242 297.709 76.8953C297.709 76.0613 297.853 75.3549 298.14 74.7761C298.431 74.1928 298.846 73.7485 299.384 73.4431C299.922 73.1378 300.562 72.9851 301.305 72.9851C302.002 72.9851 302.617 73.1378 303.15 73.4431C303.684 73.7485 304.101 74.1928 304.401 74.7761C304.702 75.3595 304.853 76.0658 304.853 76.8953ZM299.363 76.8953C299.363 77.4467 299.429 77.9184 299.562 78.3103C299.698 78.7022 299.908 79.003 300.19 79.2126C300.473 79.4177 300.838 79.5203 301.284 79.5203C301.731 79.5203 302.095 79.4177 302.378 79.2126C302.66 79.003 302.868 78.7022 303 78.3103C303.132 77.9184 303.198 77.4467 303.198 76.8953C303.198 76.3438 303.132 75.8767 303 75.4939C302.868 75.1065 302.66 74.8126 302.378 74.6121C302.095 74.407 301.729 74.3044 301.277 74.3044C300.612 74.3044 300.127 74.5278 299.821 74.9744C299.516 75.421 299.363 76.0613 299.363 76.8953ZM310.533 72.9851C310.661 72.9851 310.8 72.9919 310.95 73.0056C311.101 73.0193 311.23 73.0375 311.34 73.0603L311.189 74.5642C311.094 74.5369 310.975 74.5164 310.834 74.5027C310.697 74.489 310.574 74.4822 310.465 74.4822C310.178 74.4822 309.904 74.53 309.645 74.6257C309.385 74.7169 309.155 74.8582 308.954 75.0496C308.754 75.2364 308.596 75.4711 308.482 75.7537C308.368 76.0362 308.312 76.3643 308.312 76.738V80.696H306.698V73.1287H307.956L308.175 74.4617H308.25C308.4 74.1928 308.587 73.9467 308.811 73.7234C309.034 73.5001 309.289 73.3223 309.576 73.1902C309.868 73.0535 310.187 72.9851 310.533 72.9851ZM314.901 84.0593C313.876 84.0593 313.09 83.8748 312.543 83.5056C311.996 83.1365 311.723 82.6192 311.723 81.9539C311.723 81.489 311.868 81.0948 312.16 80.7712C312.452 80.4522 312.869 80.2312 313.411 80.1082C313.206 80.017 313.028 79.8757 312.878 79.6843C312.732 79.4884 312.659 79.2719 312.659 79.0349C312.659 78.7524 312.739 78.5108 312.898 78.3103C313.058 78.1098 313.297 77.9161 313.616 77.7292C313.22 77.5606 312.901 77.2872 312.659 76.9089C312.422 76.5261 312.304 76.0772 312.304 75.5623C312.304 75.0154 312.42 74.5505 312.652 74.1677C312.885 73.7804 313.224 73.4864 313.671 73.2859C314.118 73.0808 314.658 72.9783 315.291 72.9783C315.428 72.9783 315.576 72.9874 315.735 73.0056C315.899 73.0193 316.05 73.0375 316.187 73.0603C316.328 73.0785 316.435 73.099 316.508 73.1218H319.126V74.0173L317.841 74.2566C317.964 74.4298 318.062 74.628 318.135 74.8513C318.208 75.0701 318.244 75.3093 318.244 75.5691C318.244 76.3529 317.973 76.9705 317.431 77.4216C316.893 77.8682 316.15 78.0916 315.202 78.0916C314.974 78.0824 314.753 78.0642 314.539 78.0369C314.375 78.1371 314.25 78.2488 314.163 78.3718C314.076 78.4903 314.033 78.6248 314.033 78.7751C314.033 78.8982 314.076 78.9985 314.163 79.0759C314.25 79.1488 314.377 79.2035 314.546 79.24C314.719 79.2764 314.929 79.2947 315.175 79.2947H316.48C317.31 79.2947 317.943 79.4701 318.381 79.821C318.818 80.172 319.037 80.6869 319.037 81.366C319.037 82.2273 318.682 82.8904 317.971 83.3552C317.26 83.8246 316.237 84.0593 314.901 84.0593ZM314.963 82.9314C315.523 82.9314 315.995 82.8767 316.378 82.7673C316.761 82.658 317.05 82.5007 317.246 82.2957C317.442 82.0951 317.54 81.8559 317.54 81.5779C317.54 81.3318 317.479 81.1427 317.355 81.0105C317.232 80.8783 317.048 80.7872 316.802 80.7371C316.556 80.6869 316.25 80.6619 315.886 80.6619H314.696C314.4 80.6619 314.138 80.7074 313.91 80.7986C313.682 80.8943 313.505 81.031 313.377 81.2087C313.254 81.3865 313.192 81.6007 313.192 81.8513C313.192 82.1977 313.345 82.4643 313.65 82.6511C313.96 82.838 314.398 82.9314 314.963 82.9314ZM315.277 77.0388C315.747 77.0388 316.095 76.9112 316.323 76.656C316.551 76.3962 316.665 76.0317 316.665 75.5623C316.665 75.0518 316.547 74.669 316.31 74.4138C316.077 74.1586 315.731 74.031 315.271 74.031C314.819 74.031 314.475 74.1609 314.238 74.4207C314.006 74.6804 313.89 75.0655 313.89 75.5759C313.89 76.0362 314.006 76.3962 314.238 76.656C314.475 76.9112 314.822 77.0388 315.277 77.0388ZM323.474 72.9851C324.431 72.9851 325.153 73.197 325.641 73.6208C326.133 74.0447 326.379 74.7055 326.379 75.6033V80.696H325.237L324.93 79.6228H324.875C324.661 79.8962 324.44 80.1218 324.212 80.2996C323.984 80.4773 323.72 80.6095 323.419 80.696C323.123 80.7872 322.76 80.8328 322.332 80.8328C321.881 80.8328 321.478 80.7507 321.122 80.5867C320.767 80.4181 320.486 80.1628 320.281 79.821C320.076 79.4792 319.974 79.0463 319.974 78.5222C319.974 77.7429 320.263 77.1573 320.842 76.7654C321.425 76.3735 322.305 76.157 323.48 76.116L324.793 76.0681V75.6716C324.793 75.1475 324.67 74.7738 324.424 74.5505C324.182 74.3272 323.84 74.2156 323.398 74.2156C323.02 74.2156 322.653 74.2703 322.298 74.3796C321.942 74.489 321.596 74.6235 321.259 74.783L320.739 73.6482C321.108 73.4522 321.528 73.2927 321.997 73.1697C322.471 73.0466 322.963 72.9851 323.474 72.9851ZM324.786 77.0798L323.809 77.114C323.007 77.1414 322.444 77.2781 322.12 77.5242C321.797 77.7703 321.635 78.1075 321.635 78.5359C321.635 78.9096 321.746 79.183 321.97 79.3562C322.193 79.5248 322.487 79.6091 322.852 79.6091C323.408 79.6091 323.868 79.4519 324.232 79.1375C324.602 78.8184 324.786 78.3513 324.786 77.7361V77.0798ZM324.328 69.9705C324.451 70.1801 324.615 70.4125 324.82 70.6677C325.03 70.9229 325.246 71.1736 325.47 71.4197C325.698 71.6612 325.898 71.8686 326.071 72.0417V72.2126H324.978C324.731 72.0577 324.469 71.8731 324.191 71.6589C323.918 71.4402 323.66 71.2055 323.419 70.9548C323.173 71.2055 322.915 71.4379 322.646 71.6521C322.382 71.8663 322.129 72.0531 321.888 72.2126H320.801V72.0417C320.974 71.864 321.172 71.6544 321.396 71.4128C321.619 71.1713 321.833 70.9229 322.038 70.6677C322.243 70.4125 322.407 70.1801 322.53 69.9705H324.328ZM332.572 72.9851C333.424 72.9851 334.088 73.2061 334.562 73.6482C335.04 74.0857 335.279 74.7898 335.279 75.7605V80.696H333.673V76.0613C333.673 75.4734 333.552 75.0336 333.311 74.7419C333.069 74.4457 332.695 74.2976 332.189 74.2976C331.456 74.2976 330.945 74.5232 330.658 74.9744C330.376 75.4255 330.234 76.0795 330.234 76.9363V80.696H328.628V73.1287H329.879L330.104 74.1541H330.193C330.357 73.8897 330.56 73.6733 330.802 73.5046C331.048 73.3315 331.321 73.2016 331.622 73.115C331.927 73.0284 332.244 72.9851 332.572 72.9851ZM339.135 73.1287V80.696H337.528V73.1287H339.135ZM338.342 70.2302C338.588 70.2302 338.8 70.2963 338.978 70.4285C339.16 70.5606 339.251 70.7885 339.251 71.1121C339.251 71.4311 339.16 71.6589 338.978 71.7957C338.8 71.9278 338.588 71.9939 338.342 71.9939C338.087 71.9939 337.87 71.9278 337.692 71.7957C337.519 71.6589 337.433 71.4311 337.433 71.1121C337.433 70.7885 337.519 70.5606 337.692 70.4285C337.87 70.2963 338.087 70.2302 338.342 70.2302ZM344.487 80.8328C343.772 80.8328 343.152 80.6938 342.628 80.4158C342.104 80.1378 341.701 79.7117 341.418 79.1375C341.135 78.5632 340.994 77.8341 340.994 76.95C340.994 76.0294 341.149 75.2774 341.459 74.6941C341.769 74.1108 342.197 73.6801 342.744 73.4021C343.296 73.1241 343.927 72.9851 344.638 72.9851C345.089 72.9851 345.497 73.0307 345.861 73.1218C346.23 73.2084 346.543 73.3155 346.798 73.4431L346.319 74.7283C346.041 74.6143 345.757 74.5186 345.465 74.4412C345.173 74.3637 344.893 74.325 344.624 74.325C344.182 74.325 343.813 74.4229 343.517 74.6189C343.225 74.8149 343.006 75.1065 342.86 75.4939C342.719 75.8813 342.648 76.3621 342.648 76.9363C342.648 77.4923 342.721 77.9617 342.867 78.3445C343.013 78.7227 343.229 79.0098 343.517 79.2058C343.804 79.3972 344.157 79.4929 344.576 79.4929C344.991 79.4929 345.362 79.4428 345.69 79.3425C346.019 79.2423 346.328 79.1124 346.62 78.9529V80.3474C346.333 80.5115 346.025 80.6322 345.697 80.7097C345.369 80.7917 344.966 80.8328 344.487 80.8328ZM355.097 76.8953C355.097 77.5242 355.015 78.0824 354.851 78.5701C354.687 79.0577 354.447 79.4701 354.133 79.8074C353.818 80.1401 353.44 80.3953 352.998 80.573C352.556 80.7462 352.057 80.8328 351.501 80.8328C350.981 80.8328 350.505 80.7462 350.072 80.573C349.639 80.3953 349.263 80.1401 348.944 79.8074C348.63 79.4701 348.386 79.0577 348.213 78.5701C348.04 78.0824 347.953 77.5242 347.953 76.8953C347.953 76.0613 348.097 75.3549 348.384 74.7761C348.675 74.1928 349.09 73.7485 349.628 73.4431C350.166 73.1378 350.806 72.9851 351.549 72.9851C352.246 72.9851 352.861 73.1378 353.395 73.4431C353.928 73.7485 354.345 74.1928 354.646 74.7761C354.946 75.3595 355.097 76.0658 355.097 76.8953ZM349.607 76.8953C349.607 77.4467 349.674 77.9184 349.806 78.3103C349.942 78.7022 350.152 79.003 350.435 79.2126C350.717 79.4177 351.082 79.5203 351.528 79.5203C351.975 79.5203 352.34 79.4177 352.622 79.2126C352.905 79.003 353.112 78.7022 353.244 78.3103C353.376 77.9184 353.442 77.4467 353.442 76.8953C353.442 76.3438 353.376 75.8767 353.244 75.4939C353.112 75.1065 352.905 74.8126 352.622 74.6121C352.34 74.407 351.973 74.3044 351.521 74.3044C350.856 74.3044 350.371 74.5278 350.065 74.9744C349.76 75.421 349.607 76.0613 349.607 76.8953ZM362.028 78.5359C362.028 79.0326 361.908 79.4519 361.666 79.7937C361.424 80.1355 361.071 80.3953 360.606 80.573C360.146 80.7462 359.581 80.8328 358.911 80.8328C358.382 80.8328 357.927 80.794 357.544 80.7166C357.166 80.6436 356.808 80.5297 356.471 80.3748V78.9871C356.831 79.1557 357.234 79.3015 357.681 79.4246C358.132 79.5476 358.558 79.6091 358.959 79.6091C359.488 79.6091 359.868 79.5271 360.101 79.363C360.333 79.1944 360.449 78.9711 360.449 78.6931C360.449 78.5291 360.401 78.3832 360.306 78.2556C360.215 78.1235 360.041 77.989 359.786 77.8523C359.535 77.711 359.166 77.5424 358.679 77.3464C358.2 77.155 357.797 76.9636 357.469 76.7722C357.141 76.5808 356.892 76.3507 356.724 76.0818C356.555 75.8083 356.471 75.4597 356.471 75.0359C356.471 74.366 356.735 73.8578 357.264 73.5115C357.797 73.1606 358.501 72.9851 359.376 72.9851C359.841 72.9851 360.278 73.033 360.688 73.1287C361.103 73.2198 361.509 73.3542 361.905 73.532L361.399 74.7419C361.058 74.5916 360.714 74.4685 360.367 74.3728C360.025 74.2725 359.677 74.2224 359.321 74.2224C358.907 74.2224 358.59 74.2862 358.371 74.4138C358.157 74.5414 358.05 74.7237 358.05 74.9607C358.05 75.1384 358.102 75.2888 358.207 75.4119C358.312 75.5349 358.492 75.658 358.747 75.781C359.007 75.9041 359.367 76.0567 359.827 76.239C360.278 76.4122 360.668 76.5945 360.996 76.7859C361.329 76.9727 361.584 77.2029 361.762 77.4763C361.939 77.7498 362.028 78.1029 362.028 78.5359Z" fill="#177200"/>
</svg>
